<svg width="112" height="102" viewBox="0 0 112 102" fill="none" xmlns="http://www.w3.org/2000/svg">
<g filter="url(#filter0_d_449_366)">
<path d="M66 9H44C32.9543 9 24 17.9543 24 29L24 63C24 74.0457 32.9543 83 44 83H93C101.284 83 108 76.2843 108 68V22.4717C108 15.0315 101.969 9 94.5283 9V9" stroke="url(#paint0_linear_449_366)" stroke-width="8"/>
</g>
<path d="M104.001 50.0544C104.001 46.9088 104.001 41.9995 104.001 41.9995C95.9857 33.9848 80.4513 34.8634 73.4998 43.4995C58.8045 61.7572 72.6614 78.998 75.5001 78.998L89 78.9979C76.9773 75.4367 71.93 62.9688 79.4999 50.0544C85.2886 41.1498 96.8755 42.4857 104.001 50.0544Z" fill="url(#paint1_linear_449_366)"/>
<defs>
<filter id="filter0_d_449_366" x="0" y="0" width="112" height="102" filterUnits="userSpaceOnUse" color-interpolation-filters="sRGB">
<feFlood flood-opacity="0" result="BackgroundImageFix"/>
<feColorMatrix in="SourceAlpha" type="matrix" values="0 0 0 0 0 0 0 0 0 0 0 0 0 0 0 0 0 0 127 0" result="hardAlpha"/>
<feOffset dx="-10" dy="5"/>
<feGaussianBlur stdDeviation="5"/>
<feComposite in2="hardAlpha" operator="out"/>
<feColorMatrix type="matrix" values="0 0 0 0 0.145098 0 0 0 0 0.145098 0 0 0 0 0.145098 0 0 0 0.2 0"/>
<feBlend mode="normal" in2="BackgroundImageFix" result="effect1_dropShadow_449_366"/>
<feBlend mode="normal" in="SourceGraphic" in2="effect1_dropShadow_449_366" result="shape"/>
</filter>
<linearGradient id="paint0_linear_449_366" x1="24" y1="83" x2="119.671" y2="30.1136" gradientUnits="userSpaceOnUse">
<stop stop-color="#F96E8E"/>
<stop offset="0.364583" stop-color="#FD72A9"/>
<stop offset="0.703125" stop-color="#DA44D4"/>
<stop offset="1" stop-color="#ABB6D6"/>
</linearGradient>
<linearGradient id="paint1_linear_449_366" x1="70.1583" y1="78.9922" x2="104" y2="37.1355" gradientUnits="userSpaceOnUse">
<stop stop-color="#F76AB0"/>
<stop offset="0.144376" stop-color="#EB5ABF"/>
<stop offset="0.546875" stop-color="#D946D4"/>
<stop offset="0.922417" stop-color="#C772D5"/>
<stop offset="1" stop-color="#BB8FD5"/>
</linearGradient>
</defs>
</svg>
