<svg width="294" height="98" viewBox="0 0 294 98" fill="none" xmlns="http://www.w3.org/2000/svg">
<path d="M31.2906 75.2C25.224 75.2 19.8573 73.7667 15.1906 70.9C10.524 67.9667 6.89063 63.8333 4.29063 58.5C1.69063 53.1 0.390625 46.7 0.390625 39.3C0.390625 32.1667 1.69063 25.8667 4.29063 20.4C6.95729 14.8667 10.6906 10.5667 15.4906 7.5C20.3573 4.36667 26.024 2.8 32.4906 2.8C35.824 2.8 38.8573 3.13333 41.5906 3.8C44.324 4.4 46.8906 5.26666 49.2906 6.39999L46.3906 14.4C44.324 13.4 42.1906 12.6 39.9906 12C37.8573 11.4 35.324 11.1 32.3906 11.1C28.124 11.1 24.2906 12.2 20.8906 14.4C17.5573 16.6 14.924 19.7667 12.9906 23.9C11.0573 28.0333 10.0906 33.0333 10.0906 38.9C10.0906 44.5 11.024 49.4 12.8906 53.6C14.824 57.8 17.4573 61.0667 20.7906 63.4C24.1906 65.7333 28.0573 66.9 32.3906 66.9C35.6573 66.9 38.4906 66.5 40.8906 65.7C43.2906 64.9 45.624 63.8667 47.8906 62.6L50.7906 70.5C48.324 71.8333 45.4906 72.9667 42.2906 73.9C39.1573 74.7667 35.4906 75.2 31.2906 75.2ZM79.6383 75.2C75.3049 75.2 71.3716 74.1 67.8383 71.9C64.3049 69.7 61.4716 66.6 59.3383 62.6C57.2716 58.5333 56.2383 53.7667 56.2383 48.3C56.2383 43.1 57.2716 38.4333 59.3383 34.3C61.4716 30.1667 64.3716 26.9 68.0383 24.5C71.7716 22.0333 76.0383 20.8 80.8383 20.8C83.8383 20.8 86.5383 21.3333 88.9383 22.4C91.4049 23.4 93.5383 24.6667 95.3383 26.2V22H103.538V61.4C103.538 63.9333 104.138 65.6 105.338 66.4C106.605 67.1333 107.972 67.5 109.438 67.5L107.538 74.5C101.138 74.5 97.2716 71.9 95.9383 66.7C94.405 68.8333 92.305 70.8 89.6383 72.6C87.0383 74.3333 83.7049 75.2 79.6383 75.2ZM81.6383 67.2C84.1716 67.2 86.5716 66.6 88.8383 65.4C91.105 64.1333 93.005 62.5667 94.5383 60.7V32.8C92.7383 31.5333 90.7383 30.5333 88.5383 29.8C86.405 29 84.1383 28.6 81.7383 28.6C78.5383 28.6 75.7049 29.4333 73.2383 31.1C70.8383 32.7 68.9383 34.9667 67.5383 37.9C66.1383 40.7667 65.4383 44.1333 65.4383 48C65.4383 51.7333 66.1383 55.0667 67.5383 58C68.9383 60.8667 70.8716 63.1333 73.3383 64.8C75.8049 66.4 78.5716 67.2 81.6383 67.2ZM121.457 74V22H130.157V33.3C131.024 31.1 132.19 29.0667 133.657 27.2C135.124 25.2667 136.957 23.7333 139.157 22.6C141.357 21.4 143.924 20.8 146.857 20.8C147.857 20.8 148.857 20.8667 149.857 21C150.857 21.0667 151.69 21.2 152.357 21.4L149.657 30.7C148.39 30.1667 146.89 29.9 145.157 29.9C142.69 29.9 140.324 30.6 138.057 32C135.857 33.4 134.024 35.5667 132.557 38.5C131.157 41.4333 130.457 45.1667 130.457 49.7V74H121.457ZM178.071 75.2C173.804 75.2 169.904 74.1 166.371 71.9C162.838 69.7 160.038 66.6 157.971 62.6C155.904 58.5333 154.871 53.7667 154.871 48.3C154.871 43.0333 155.904 38.3333 157.971 34.2C160.104 30.0667 162.904 26.8 166.371 24.4C169.904 22 173.771 20.8 177.971 20.8C181.438 20.8 184.404 21.5 186.871 22.9C189.404 24.3 191.371 25.7333 192.771 27.2V-9.53674e-07H201.771V61.4C201.771 63.9333 202.371 65.6 203.571 66.4C204.838 67.1333 206.204 67.5 207.671 67.5L205.771 74.5C199.438 74.5 195.571 71.9667 194.171 66.9C192.704 68.9667 190.638 70.8667 187.971 72.6C185.371 74.3333 182.071 75.2 178.071 75.2ZM180.071 67.2C182.538 67.2 184.871 66.6333 187.071 65.5C189.338 64.3 191.238 62.7667 192.771 60.9V35.1C191.504 33.5 189.738 32.0333 187.471 30.7C185.204 29.3 182.704 28.6 179.971 28.6C176.771 28.6 173.971 29.4667 171.571 31.2C169.171 32.9333 167.304 35.2667 165.971 38.2C164.704 41.0667 164.071 44.3333 164.071 48C164.071 51.6667 164.771 54.9667 166.171 57.9C167.571 60.7667 169.471 63.0333 171.871 64.7C174.338 66.3667 177.071 67.2 180.071 67.2ZM235.499 75.2C232.433 75.2 229.666 74.6333 227.199 73.5C224.733 72.3 222.766 70.4 221.299 67.8C219.899 65.2 219.199 61.8333 219.199 57.7V-9.53674e-07H228.199V56.8C228.199 60.4 228.933 63.0667 230.399 64.8C231.933 66.5333 234.033 67.4 236.699 67.4C237.966 67.4 239.199 67.2667 240.399 67C241.666 66.6667 242.733 66.3 243.599 65.9L245.799 73.2C244.599 73.7333 243.099 74.2 241.299 74.6C239.566 75 237.633 75.2 235.499 75.2ZM251.566 97.2C249.566 97.2 247.799 97 246.266 96.6C244.799 96.2 243.632 95.7333 242.766 95.2L244.766 87.7C245.566 88.1667 246.566 88.5667 247.766 88.9C248.966 89.2333 250.299 89.4 251.766 89.4C254.566 89.4 257.066 88.5 259.266 86.7C261.466 84.9 263.566 81.3667 265.566 76.1L267.866 70.1H263.066L242.766 24.4L250.766 20.8L270.166 64.1L285.266 21.2L293.566 24.4L274.466 76.6C272.532 81.9333 270.432 86.1 268.166 89.1C265.899 92.1 263.399 94.2 260.666 95.4C257.932 96.6 254.899 97.2 251.566 97.2Z" fill="url(#paint0_linear_449_370)"/>
<defs>
<linearGradient id="paint0_linear_449_370" x1="100.843" y1="74" x2="180.898" y2="92.7679" gradientUnits="userSpaceOnUse">
<stop stop-color="#FB6789"/>
<stop offset="0.333333" stop-color="#F3499E"/>
<stop offset="0.666667" stop-color="#CC70BF"/>
<stop offset="1" stop-color="#9DA1E8"/>
</linearGradient>
</defs>
</svg>
